<svg xmlns="http://www.w3.org/2000/svg" xmlns:xlink="http://www.w3.org/1999/xlink" id="_x31__px" x="0px" y="0px" viewBox="0 0 512 512" style="enable-background:new 0 0 512 512;" xml:space="preserve">
<style type="text/css">
	.st0{fill:#256DE9;}
</style>
<path class="st0" d="M502.04,165.12c5.98-2.12,9.97-7.78,9.96-14.13c-0.01-6.34-4.01-11.99-9.99-14.1L261.41,52  c-3.22-1.14-6.74-1.14-9.96,0l-240.6,84.89c-5.98,2.11-9.99,7.76-9.99,14.1c-0.01,6.34,3.98,12,9.96,14.13L106.12,199v97.68  c0,16.12,16.82,29.76,49.99,40.52c28.91,9.38,64.54,14.55,100.32,14.55s71.4-5.17,100.32-14.55c33.17-10.77,49.99-24.4,49.99-40.52  V199l39.35-13.99v135.36c-17.5,6.19-30.07,22.89-30.07,42.48c0,19.59,12.57,36.29,30.07,42.48v57.19c0,8.27,6.7,14.98,14.97,14.98  s14.97-6.7,14.97-14.98v-57.19c17.5-6.19,30.07-22.89,30.07-42.48c0-19.59-12.58-36.29-30.07-42.48V174.36L502.04,165.12z   M461.06,377.95c-8.33,0-15.1-6.77-15.1-15.1c0-8.33,6.77-15.1,15.1-15.1s15.1,6.77,15.1,15.1  C476.16,371.17,469.38,377.95,461.06,377.95z M256.43,82l195.74,69.06l-195.74,69.59L60.68,151.06L256.43,82z M376.78,294.43  c-2.87,2.89-13.15,9.82-36.34,16.44c-24.74,7.06-54.58,10.94-84.02,10.94c-29.44,0-59.28-3.89-84.02-10.94  c-23.19-6.62-33.47-13.54-36.34-16.44v-84.78l115.34,41c1.62,0.58,3.32,0.87,5.02,0.87c1.7,0,3.39-0.29,5.02-0.87l115.34-41  L376.78,294.43L376.78,294.43z"></path>
</svg>