<svg xmlns="http://www.w3.org/2000/svg" xmlns:xlink="http://www.w3.org/1999/xlink" id="_x31__px" x="0px" y="0px" viewBox="0 0 512 512" style="enable-background:new 0 0 512 512;" xml:space="preserve">
<style type="text/css">
	.st0{fill:#256DE9;stroke:#256DE9;stroke-miterlimit:10;}
</style>
<g>
	<path class="st0" d="M452.42,511.99c-2.09,0-4.18-0.62-5.99-1.83l-73.11-49.75l-73.11,49.75c-3.67,2.5-8.49,2.45-12.12-0.09   s-5.31-7.06-4.22-11.35l22.63-89.34l-68.09-58.15c-3.31-2.84-4.57-7.4-3.18-11.52s5.14-7,9.49-7.23l87.1-4.93l31.51-85.86   c3.09-8.41,16.94-8.41,20.01,0l31.51,85.86l87.1,4.93c4.35,0.23,8.11,3.11,9.49,7.23c1.39,4.12,0.13,8.68-3.18,11.52l-68.09,58.15   l22.63,89.34c1.09,4.29-0.6,8.81-4.22,11.35C456.71,511.35,454.58,511.99,452.42,511.99z M373.32,436.83   c2.09,0,4.18,0.62,5.99,1.83l55.87,38.02l-17.34-68.5c-0.98-3.93,0.34-8.09,3.41-10.73l52.93-45.2l-67.56-3.84   c-4.25-0.23-7.96-2.99-9.41-6.98l-23.89-65.15l-23.89,65.15c-1.45,3.99-5.16,6.72-9.41,6.98l-67.56,3.84l52.93,45.2   c3.09,2.65,4.42,6.81,3.41,10.73l-17.34,68.5l55.87-38.02C369.14,437.43,371.23,436.83,373.32,436.83z"></path>
</g>
<g>
	<path class="st0" d="M202.66,319.99h-128c-5.89,0-10.67-4.78-10.67-10.67c0-5.89,4.78-10.67,10.67-10.67h128   c5.89,0,10.67,4.78,10.67,10.67C213.32,315.21,208.54,319.99,202.66,319.99z"></path>
</g>
<g>
	<path class="st0" d="M202.66,383.99h-128c-5.89,0-10.67-4.78-10.67-10.67c0-5.89,4.78-10.67,10.67-10.67h128   c5.89,0,10.67,4.78,10.67,10.67C213.32,379.21,208.54,383.99,202.66,383.99z"></path>
</g>
<g>
	<path class="st0" d="M181.32,149.33c-23.53,0-42.67-19.14-42.67-42.67S157.79,64,181.32,64s42.67,19.14,42.67,42.67   S204.85,149.33,181.32,149.33z M181.32,85.33c-11.75,0-21.33,9.58-21.33,21.33S169.57,128,181.32,128   c11.75,0,21.33-9.58,21.33-21.33S193.08,85.33,181.32,85.33z"></path>
</g>
<g>
	<path class="st0" d="M255.99,255.99c-5.89,0-10.67-4.78-10.67-10.67V224c0-17.64-14.36-32-32-32h-64c-17.64,0-32,14.36-32,32v21.33   c0,5.89-4.78,10.67-10.67,10.67s-10.67-4.78-10.67-10.67V224c0-29.4,23.94-53.33,53.33-53.33h64c29.4,0,53.33,23.94,53.33,53.33   v21.33C266.65,251.22,261.88,255.99,255.99,255.99z"></path>
</g>
<g>
	<path class="st0" d="M223.99,447.99H53.33c-29.4,0-53.33-23.94-53.33-53.33V53.33C-0.01,23.94,23.93,0,53.33,0h255.99   c29.4,0,53.33,23.94,53.33,53.33v128c0,5.89-4.78,10.67-10.67,10.67s-10.67-4.78-10.67-10.67v-128c0-17.64-14.36-32-32-32H53.33   c-17.64,0-32,14.36-32,32v341.33c0,17.64,14.36,32,32,32h170.66c5.89,0,10.67,4.78,10.67,10.67S229.88,447.99,223.99,447.99z"></path>
</g>
</svg>