<svg xmlns="http://www.w3.org/2000/svg" xmlns:xlink="http://www.w3.org/1999/xlink" id="_x31__px" x="0px" y="0px" viewBox="0 0 512 512" style="enable-background:new 0 0 512 512;" xml:space="preserve">
<style type="text/css">
	.st0{fill:#256DE9;}
</style>
<g>
	<g>
		<path class="st0" d="M256,0C161.76,0,85.08,76.67,85.08,170.92c0,94.24,76.67,170.92,170.92,170.92    c94.24,0,170.92-76.68,170.92-170.92C426.92,76.67,350.24,0,256,0z M256,308.21c-75.7,0-137.29-61.59-137.29-137.29    S180.3,33.62,256,33.62c75.71,0,137.29,61.59,137.29,137.29S331.71,308.21,256,308.21z"></path>
	</g>
</g>
<g>
	<g>
		<path class="st0" d="M375.34,488.51l-8.41-199.5l-33.59,1.41l7.33,173.89l-69.45-59.84c-8.68-8.11-21.78-8.12-30.46,0    l-69.44,59.83l7.33-173.88l-33.59-1.41l-8.41,199.5c-0.01,0.23-0.01,0.47-0.01,0.71c0,8.9,5.17,17.04,13.18,20.71    c8.05,3.71,17.29,2.38,24.13-3.5L256,435.74l82.07,70.72c4.26,3.65,9.46,5.54,14.73,5.54c3.17,0,6.36-0.68,9.37-2.07    c8-3.68,13.17-11.81,13.17-20.71C375.36,488.98,375.35,488.74,375.34,488.51z"></path>
	</g>
</g>
<g>
	<g>
		<path class="st0" d="M330.65,119.8c-6.57-6.57-17.2-6.57-23.77,0l-73.22,73.22l-34.07-34.48c-6.53-6.61-17.17-6.67-23.78-0.15    c-6.61,6.53-6.67,17.17-0.15,23.78l45.95,46.51c3.15,3.19,7.43,4.99,11.91,5c0.02,0,0.03,0,0.05,0c4.46,0,8.74-1.77,11.89-4.93    l85.18-85.18C337.22,137.01,337.22,126.36,330.65,119.8z"></path>
	</g>
</g>
</svg>