<svg xmlns="http://www.w3.org/2000/svg" xmlns:xlink="http://www.w3.org/1999/xlink" id="_x31__px" x="0px" y="0px" viewBox="0 0 512 512" style="enable-background:new 0 0 512 512;" xml:space="preserve">
<style type="text/css">
	.st0{fill:#256DE9;stroke:#256DE9;stroke-miterlimit:10;}
</style>
<g>
	<g>
		<g>
			<path class="st0" d="M233.78,0C129.49,0,44.64,84.84,44.64,189.14c0,34.33,15.4,71.26,16.04,72.82     c4.97,11.8,14.79,30.14,21.86,40.89l129.68,196.49c5.31,8.05,13.16,12.67,21.55,12.67c8.39,0,16.24-4.62,21.55-12.66     l129.69-196.5c7.09-10.75,16.89-29.08,21.86-40.89c0.65-1.55,16.03-38.47,16.03-72.82C422.91,84.84,338.07,0,233.78,0z      M386.37,253.32c-4.44,10.58-13.57,27.64-19.93,37.27l-129.69,196.5c-2.56,3.88-3.37,3.88-5.93,0l-129.69-196.5     c-6.35-9.63-15.49-26.7-19.93-37.28c-0.19-0.46-14.31-34.44-14.31-64.17c0-92.02,74.86-166.88,166.88-166.88     s166.88,74.86,166.88,166.88C400.66,218.91,386.51,252.99,386.37,253.32z"></path>
			<path class="st0" d="M233.78,89.02c-55.22,0-100.13,44.93-100.13,100.13s44.91,100.13,100.13,100.13s100.13-44.93,100.13-100.13     C333.91,133.94,288.99,89.02,233.78,89.02z M233.78,267.03c-42.93,0-77.88-34.93-77.88-77.88s34.95-77.88,77.88-77.88     s77.88,34.93,77.88,77.88S276.71,267.03,233.78,267.03z"></path>
		</g>
	</g>
</g>
</svg>